<?xml version="1.0" encoding="utf-8"?>
<!-- Generator: Adobe Illustrator 19.2.1, SVG Export Plug-In . SVG Version: 6.00 Build 0)  -->
<svg version="1.1" id="layer" xmlns="http://www.w3.org/2000/svg" xmlns:xlink="http://www.w3.org/1999/xlink" x="0px" y="0px"
	 viewBox="0 0 652 652" style="enable-background:new 0 0 652 652;" xml:space="preserve">
<style type="text/css">
	.st0{fill:#002C77;}
	.st1{fill:#002C77;stroke:#004784;stroke-width:0.3138;stroke-miterlimit:3.8636;}
	.st2{fill:#FFFFFF;}
	.st3{fill:#A80533;}
	.st4{fill:#004784;}
</style>
<path class="st0" d="M387,335.9v-19.2c-6.3,2.6-22.2,6.5-22.2,14.9c0,5.6,4.2,10.1,9.9,10.1C380.1,341.7,383.2,338.9,387,335.9
	L387,335.9z M387.3,313.3v-14.7c0-5.4-3.5-6.8-8.6-6.8c-5,0-12.1,3.3-12.1,6.3c0,0.8,0.3,1.8,0.3,3.2c0,5.1-1.3,8.6-7.2,8.6
	c-2.5,0-4.2-2.4-4.2-4.6c0-2.9,2.1-5.8,5-8.2c6.3-5.1,16.1-9.3,24.3-9.3c8.5,0,12.9,5,12.9,13.1v36c0,2.2,0,6.4,3.2,6.4
	c2.2,0,3.5-2.8,3.9-4.6h2.2c-0.7,6.4-3.5,10.3-10,10.3c-5.1,0-9.4-4.6-9.6-9.3c-6.5,4.7-10.8,9.3-19.5,9.3c-6.4,0-12.2-5-12.2-11.4
	C355.6,322.7,376.1,318.1,387.3,313.3L387.3,313.3z"/>
<path class="st0" d="M507.1,318.3c0,10.4,3.9,27.5,17.4,27.5c13.1,0,17.6-13.6,17.6-24.2c0-11.4-1.7-31-17.5-31
	C511,290.6,507.1,308.2,507.1,318.3L507.1,318.3z M495.3,317.8c0-16.3,11.7-30.2,28.8-30.2c18.1,0,29.6,13.6,29.6,30.7
	c0,17.5-11.3,30.4-29.5,30.4C505.8,348.6,495.3,334.9,495.3,317.8L495.3,317.8z"/>
<path class="st0" d="M160.3,257.3v-3.1h31.4v3.1c-5.8,0.1-8.1,0.1-8.1,3.6c0,0.1,0.1,1.1,0.7,2.4l18.9,64.2l26.5-76.4h2.2l23.2,75.5
	c0,0,18.3-55.2,18.3-62.9c0-6.1-3.9-5.7-8.9-6.3v-3.1h19.2c8.5,0,17.1-2.9,22-5.8v48.8c6-5.3,11-9.6,19.6-9.6
	c6.4,0,12.2,2.8,15.4,8.2c2.9,4.7,3.5,9.2,3.5,14.5v27c0,6.9,1.8,6.9,7.9,7.4v2.5h-26.3v-2.5c5.7-0.4,7.5-0.4,7.5-7.4v-27.1
	c0-4.3,0-6.3-1.9-10.3c-2.2-3.9-6.1-7.6-11.1-6.8c-7.6,1.3-10.6,4.7-14.5,8.5v35.7c0,6.9,1.8,6.9,7.6,7.4v2.5H287v-2.5
	c6.3-0.4,8.1-0.4,8.1-7.4V258c0.1-0.1-2.1,0-5,0c-10.6,0.7-10.8,8.8-14.2,18.3l-23.8,72.4h-2.5l-23.5-72.5L199,348.8h-2.4l-25-79.6
	c-1.5-4.2-2.2-7.6-4.4-10C165.8,258,165.7,257.2,160.3,257.3L160.3,257.3z"/>
<path class="st0" d="M581.6,347.3v-2.5c-6-0.4-7.8-0.4-7.8-7.4v-31.8c0-6.3,8.3-11.8,14.2-11.8c8.9,0,13.8,5.7,13.8,14.2v29.3
	c0,6.9-1.8,6.9-8.1,7.4v2.5h27.2v-2.5c-4.7-0.4-8.5-0.4-8.5-7.4v-31.8c0-10.1-10.1-17.8-20.1-17.8c-8.8,0-13.1,4-18.8,9.7v-9.7
	c-6,2.1-12.2,5.3-18.6,6.1v2.1c5.7,0.6,7.8,2.5,7.8,7.5v33.9c0,6.9-1.8,6.9-8.1,7.4v2.5h27L581.6,347.3L581.6,347.3z"/>
<path class="st0" d="M437.5,347.3v-2.5c-7.1-0.4-8.8-0.4-8.8-7.4v-35.7c0-2.2,3.6-5.6,7.5-5.6c3.6,0,4.2,4.2,8.8,4.2
	c5.6,0,6.8-2.9,6.8-6.9c0-4.2-4.4-6.5-9.6-6.5c-6,0-10.6,5.1-13.8,9.7v-9.3c-6.3,2.9-13.1,5.6-19.2,6.5v2.1c6.1,0.7,8.6,2.1,8.6,7.4
	v34c0,6.9-1.8,6.9-7.8,7.4v2.5h27.4L437.5,347.3L437.5,347.3z"/>
<path class="st0" d="M495,291l1.9-7.4h-23.8v-11.9h-1.4c-5.6,6.5-10.8,12.2-17.2,17.8v1.5h7.5v40.6c0,9.6,4.3,17.6,14.7,17.6
	c8.9,0,15.7-6.5,19.5-10.8l-1.7-2.2c-3.2,3.6-7.5,5.7-11.4,5.7c-7.9,0-10-4.3-10-11.7v-39L495,291L495,291z"/>
<path class="st1" d="M166.2,378.4c0,4.6,1.3,8.1,6.1,8.1c4.4,0,6.8-3.1,6.8-8.3v-9.2c0-0.7-0.1-1.3-0.1-1.8
	c-0.1-1.1-1.3-1.7-2.8-1.8v-0.8h7.8v0.8c-1.5,0.1-2.6,0.6-2.8,1.8c0,0.6-0.1,1.1-0.1,1.8v9.3c0,7.1-4.4,9.7-8.8,9.7
	c-6.9,0-9.2-3.6-9.2-9.4v-9.9c0-3.1,0.1-2.9-2.8-3.2v-0.8h8.9v0.8c-2.9,0.4-2.8,0.1-2.8,3.2v9.7H166.2z"/>
<path class="st1" d="M202.7,387.7c-4-4.7-8.2-9.7-12.4-14.6v11.3c0,0.6,0.1,1,0.1,1.4c0.1,1,1,1.3,2.6,1.4v0.7h-6.3v-0.7
	c1.3-0.1,2.1-0.4,2.2-1.4c0-0.4,0.1-0.8,0.1-1.4v-11.9c-0.7-1-1.5-1.7-2.9-1.7V370h4.6c3.8,4.6,7.6,9.3,11.5,13.9l0,0v-10.4
	c0-0.6-0.1-1-0.1-1.4c-0.1-1-1-1.3-2.6-1.4V370h6.3v0.7c-1.3,0.1-2.1,0.4-2.2,1.4c0,0.4-0.1,0.8-0.1,1.4v14.3h-0.8
	C202.7,387.8,202.7,387.7,202.7,387.7z"/>
<path class="st1" d="M215.2,384.5c0,2.4-0.1,2.2,2.2,2.5v0.7h-6.8V387c2.2-0.3,2.2-0.1,2.2-2.5v-11.4c0-2.4,0.1-2.2-2.2-2.5v-0.7
	h6.8v0.7c-2.2,0.3-2.2,0.1-2.2,2.5V384.5L215.2,384.5z"/>
<path class="st1" d="M228.4,370.6c-1.4,0-2.4,0.4-1.5,2.8c1,3.1,2.5,7.4,3.8,11.3c1.7-3.9,3.2-7.8,4.7-11.7c0.7-1.7,0-2.4-1.8-2.4
	v-0.7h5.4v0.7c-0.7,0-1.5,0.3-2.1,1.5c-2.1,5.1-4.3,10.4-6.4,15.6h-1.3c-1.5-4.4-3.3-9.3-4.9-13.6c-1-2.8-1.7-3.5-2.9-3.5v-0.7h6.9
	L228.4,370.6L228.4,370.6z"/>
<path class="st1" d="M242.9,387c2.2-0.3,2.2-0.1,2.2-2.5v-11.4c0-2.4,0.1-2.2-2.2-2.5v-0.7h11.4v4h-0.7c-0.3-1.9-0.8-3.3-2.6-3.3
	h-3.5v7.2h2.1c1.7,0,2.2-0.7,2.4-2.2h0.7v5.4H252c0-1.5-0.7-2.4-2.4-2.4h-2.1v5.7c0,2.2,1,2.4,3.3,2.4c3.8,0,3.5-1.1,4.7-3.8h0.7
	l-0.7,4.6h-12.5L242.9,387L242.9,387z"/>
<path class="st1" d="M260.6,369.9h7.4c2.5,0,5.1,1.4,5.1,4.3c0,2.6-1.5,4.4-3.6,5.1l2.5,3.8c1.3,1.8,2.6,3.6,3.6,4.2v0.3H273
	c-1.5,0-2.4-2.8-5.4-7.9h-2.4v4.7c0,2.4-0.1,2.2,2.2,2.5v0.7h-6.8v-0.7c2.2-0.3,2.2-0.1,2.2-2.5V373c0-2.4,0.1-2.2-2.2-2.5
	L260.6,369.9L260.6,369.9z M265.2,378.9h2.1c2.2,0,3.2-1.7,3.2-4.6c0-2.8-1.5-3.8-3.3-3.8h-1.9L265.2,378.9L265.2,378.9z"/>
<path class="st1" d="M288.4,373.7c-0.1-1.8-1.1-3.2-3.2-3.2c-1.5,0-2.8,0.7-2.8,2.6c0,1.8,1.8,2.8,4.3,4.7c2.6,1.9,3.6,3.3,3.6,5.4
	c0,3.1-3.1,4.7-6.1,4.7c-1.7,0-3.1-0.3-4.3-0.8c-0.1,0-0.1-0.1-0.1-0.4v-3.6h0.7c0.3,2.8,2.1,3.9,4,3.9c1.8,0,3.2-1.4,3.2-3.2
	c0-1.7-0.8-3.1-4.7-5.6c-1.4-1-3.1-1.9-3.1-4.7c0-2.2,2.5-4,5.4-4c1.1,0,2.5,0.1,3.6,0.4c0.1,0,0.1,0.1,0.1,0.3v3.3h-0.7
	L288.4,373.7L288.4,373.7z"/>
<path class="st1" d="M300.2,384.5c0,2.4-0.1,2.2,2.2,2.5v0.7h-6.8V387c2.2-0.3,2.2-0.1,2.2-2.5v-11.4c0-2.4,0.1-2.2-2.2-2.5v-0.7
	h6.8v0.7c-2.2,0.3-2.2,0.1-2.2,2.5V384.5L300.2,384.5z"/>
<path class="st1" d="M315.3,384.5c0,2.4-0.1,2.2,2.2,2.5v0.7h-6.8V387c2.2-0.3,2.2-0.1,2.2-2.5v-13.8h-2.2c-2.2,0-2.8,1.4-3.6,3.1
	h-0.7l0.7-3.9h14l0.7,3.9h-0.7c-0.8-1.7-1.4-3.1-3.6-3.1h-2.2V384.5L315.3,384.5z"/>
<path class="st1" d="M329.2,387c2.4-0.3,2.2-0.1,2.2-2.5v-3.9l-3.9-7.8c-0.8-1.7-1.5-2.2-2.8-2.2v-0.7h6.5v0.7c-1.9,0-1.8,1-1.1,2.2
	l3.1,6.4l3.5-6.4c0.8-1.5,0-2.2-1.4-2.2v-0.7h5.3v0.7c-0.7,0-1.4,0.3-2.1,1.5l-4.3,7.6c-0.3,0.6-0.3,1.3-0.3,1.8v2.8
	c0,2.4-0.1,2.2,2.2,2.5v0.7h-6.8V387H329.2z"/>
<path class="st0" d="M353.4,381.6c0-4.3,3.8-10.7,9.2-10.7c4.3,0,5.3,2.9,5.3,6c0,3.6-2.9,11.3-9.2,11.3
	C354.5,388,353.4,384.6,353.4,381.6L353.4,381.6z M364.9,375.2c0-3.5-2.1-3.6-2.6-3.6c-3.6,0-5.8,6.4-5.8,10.7
	c0,1.7,0.3,4.9,2.8,4.9C362.9,387,364.9,380.9,364.9,375.2L364.9,375.2z"/>
<path class="st0" d="M383.3,371.8l-0.8,0.7h-4.3c-1.7,7.8-4.2,18.2-6.1,23.2h-1.5l4.7-23.2h-3.1l0.3-1.4h3.1
	c1.7-6.9,7.5-7.8,8.9-7.8c0.7,0,2.4,0.1,2.8,0.6l-0.4,2.2l-0.8,0.4c-0.4-0.8-1.5-1.9-2.9-1.9c-1.9,0-3.5,1.4-4.3,4.9l-0.4,1.5h4.9
	L383.3,371.8L383.3,371.8z"/>
<path class="st1" d="M403,383.5c0,3.1-0.1,2.9,2.8,3.2v0.8h-8.9v-0.8c2.9-0.4,2.8-0.1,2.8-3.2v-14.9c0-3.1,0.1-2.9-2.8-3.2v-0.8h8.6
	c5.4,0,8.2,2.2,8.2,6.1c0,4.7-4.3,7.4-9.3,6.9V377c4.2,0,6-2.4,6-6c0-3.6-1.8-5.4-5.4-5.4H403V383.5L403,383.5z"/>
<path class="st1" d="M418.3,387c2.2-0.3,2.2-0.1,2.2-2.5v-11.4c0-2.4,0.1-2.2-2.2-2.5v-0.7h11.4v4H429c-0.3-1.9-0.7-3.3-2.6-3.3
	h-3.5v7.2h2.1c1.5,0,2.2-0.7,2.4-2.2h0.7v5.4h-0.7c0-1.5-0.7-2.4-2.4-2.4h-2.1v5.7c0,2.2,1,2.4,3.3,2.4c3.6,0,3.5-1.1,4.7-3.8h0.7
	l-0.8,4.6h-12.5V387L418.3,387z"/>
<path class="st1" d="M451.2,387.7c-4-4.7-8.2-9.7-12.4-14.6v11.3c0,0.6,0.1,1,0.1,1.4c0.1,1,1,1.3,2.6,1.4v0.7h-6.3v-0.7
	c1.3-0.1,2.1-0.4,2.2-1.4c0-0.4,0.1-0.8,0.1-1.4v-11.9c-0.7-1-1.5-1.7-2.9-1.7V370h4.6c3.8,4.6,7.8,9.3,11.5,13.9l0,0v-10.4
	c0-0.6-0.1-1-0.1-1.4c-0.1-1-1-1.3-2.6-1.4V370h6.3v0.7c-1.3,0.1-2.1,0.4-2.2,1.4c0,0.4-0.1,0.8-0.1,1.4v14.3h-0.8L451.2,387.7
	L451.2,387.7z"/>
<path class="st1" d="M474.4,387.7c-4-4.7-8.2-9.7-12.4-14.6v11.3c0,0.6,0.1,1,0.1,1.4c0.1,1,1,1.3,2.6,1.4v0.7h-6.3v-0.7
	c1.3-0.1,2.1-0.4,2.2-1.4c0-0.4,0.1-0.8,0.1-1.4v-11.9c-0.7-1-1.5-1.7-2.9-1.7V370h4.6c3.8,4.6,7.8,9.3,11.5,13.9l0,0v-10.4
	c0-0.6-0.1-1-0.1-1.4c-0.1-1-1-1.3-2.6-1.4V370h6.3v0.7c-1.3,0.1-2.1,0.4-2.2,1.4c0,0.4-0.1,0.8-0.1,1.4v14.3h-0.8L474.4,387.7
	L474.4,387.7z"/>
<path class="st1" d="M491,373.7c-0.1-1.8-1.1-3.2-3.2-3.2c-1.5,0-2.8,0.7-2.8,2.6c0,1.8,1.8,2.8,4.3,4.7c2.6,1.9,3.6,3.3,3.6,5.4
	c0,3.1-3.1,4.7-6.1,4.7c-1.7,0-3.1-0.3-4.3-0.8c-0.1,0-0.1-0.1-0.1-0.4v-3.6h0.7c0.3,2.8,2.1,3.9,4,3.9c1.8,0,3.3-1.4,3.3-3.2
	c0-1.7-0.8-3.1-4.7-5.6c-1.4-1-3.1-1.9-3.1-4.7c0-2.2,2.5-4,5.4-4c1.1,0,2.5,0.1,3.6,0.4c0.1,0,0.1,0.1,0.1,0.3v3.3H491V373.7z"/>
<path class="st1" d="M501.1,387c2.2-0.3,2.2-0.1,2.2-2.5v-3.9l-3.9-7.8c-0.8-1.7-1.5-2.2-2.6-2.2v-0.7h6.5v0.7c-1.9,0-1.8,1-1.1,2.2
	l3.1,6.4l3.5-6.4c0.8-1.5,0-2.2-1.4-2.2v-0.7h5.3v0.7c-0.7,0-1.4,0.3-2.1,1.5l-4.2,7.6c-0.3,0.6-0.3,1.3-0.3,1.8v2.8
	c0,2.4-0.1,2.2,2.2,2.5v0.7h-6.8V387H501.1z"/>
<path class="st1" d="M516.8,387c2.2-0.3,2.2-0.1,2.2-2.5v-11.4c0-2.4,0.1-2.2-2.2-2.5v-0.7h6.8v0.7c-2.2,0.3-2.2,0.1-2.2,2.5v11.8
	c0,1.8,1,1.9,3.2,1.9c3.6,0,3.5-1.1,4.7-3.8h0.7l-0.7,4.6h-12.5L516.8,387L516.8,387z"/>
<path class="st1" d="M537.4,370.6c-1.4,0-2.4,0.4-1.5,2.8c1,3.1,2.5,7.4,3.8,11.3c1.7-3.9,3.2-7.8,4.7-11.7c0.7-1.7,0-2.4-1.8-2.4
	v-0.7h5.4v0.7c-0.7,0-1.5,0.3-2.1,1.5c-2.1,5.1-4.3,10.4-6.4,15.6h-1.3c-1.5-4.4-3.3-9.3-4.9-13.6c-1-2.8-1.7-3.5-2.9-3.5v-0.7h6.9
	V370.6L537.4,370.6z"/>
<path class="st1" d="M552.8,381.7l-1.1,3.3c-0.3,1,0.1,1.8,1.3,1.8v0.7h-4.6v-0.7c0.7,0,1.4-0.4,1.8-1.3c1.1-2.2,4-10.6,6.1-16.1
	h1.4c1.7,5.1,4.3,12.9,5.1,15.1c0.6,1.4,1,2.2,2.1,2.2v0.7h-6v-0.7c1.7,0,1.8-0.8,1.4-1.9l-1.1-3.3L552.8,381.7L552.8,381.7z
	 M558.9,380.7l-2.6-8.2l0,0l-3.1,8.2H558.9L558.9,380.7z"/>
<path class="st1" d="M584.1,387.7c-4-4.7-8.2-9.7-12.4-14.6v11.3c0,0.6,0.1,1,0.1,1.4c0.1,1,1,1.3,2.6,1.4v0.7h-6.3v-0.7
	c1.3-0.1,2.1-0.4,2.2-1.4c0-0.4,0.1-0.8,0.1-1.4v-11.9c-0.7-1-1.5-1.7-2.9-1.7V370h4.6c3.8,4.6,7.6,9.3,11.5,13.9l0,0v-10.4
	c0-0.6-0.1-1-0.1-1.4c-0.1-1-1-1.3-2.6-1.4V370h6.3v0.7c-1.3,0.1-2.1,0.4-2.2,1.4c0,0.4-0.1,0.8-0.1,1.4v14.3h-0.8L584.1,387.7
	L584.1,387.7z"/>
<path class="st1" d="M596,384.5c0,2.4-0.1,2.2,2.2,2.5v0.7h-6.8V387c2.2-0.3,2.2-0.1,2.2-2.5v-11.4c0-2.4,0.1-2.2-2.2-2.5v-0.7h6.8
	v0.7c-2.2,0.3-2.2,0.1-2.2,2.5V384.5L596,384.5z"/>
<path class="st1" d="M606.6,381.7l-1.1,3.3c-0.3,1,0.1,1.8,1.3,1.8v0.7h-4.6v-0.7c0.7,0,1.4-0.4,1.8-1.3c1.1-2.2,4-10.6,6.1-16.1
	h1.4c1.7,5.1,4.3,12.9,5.1,15.1c0.6,1.4,1,2.2,2.1,2.2v0.7h-5.8v-0.7c1.7,0,1.8-0.8,1.4-1.9l-1.1-3.3L606.6,381.7L606.6,381.7z
	 M612.7,380.7l-2.6-8.2l0,0l-3.1,8.2H612.7L612.7,380.7z"/>
<g>
	<path class="st2" d="M22.4,255.8h123.4v61.6c0,0,1.5,24.2-17,45.3c-22.9,26.1-44.5,31.8-44.5,31.8s-19-5.1-41.8-28.2
		c-22-22.2-20.1-48.1-20.1-48.1V255.8z"/>
	<path class="st3" d="M24.2,294c0-2.6,0-34,0-36.7c2.9,0,117.3,0,120.2,0c0,2.6,0,36.7,0,36.7H24.2z M80.2,282.8
		c0.8,0.3,3.6,1.7,5.8,2.9c1.7,0.8,3.1,1.5,3.6,1.8c0.1,0,0.4,0.1,0.7,0.3c1.8,1,6,3.2,11.9,2.1c0.1,0,4.7-0.7,7.2-4.3
		c1.5-2.2,2.4-5.1,1.3-8.5c-2.9-9.3,0.6-13.3,0.6-13.3s-3.2-1.3-6.3,0.7c-1.8,1.1-2.6,3.2-2.8,6.4c-1.1,0.3-2.9,0.7-3.9,2.4
		c-1,1.5-0.8,3.5,0.1,5.8l0.6,1.3l0.8-1.1c0.7-1.1,2.9-1.7,3.9-1.1c1.1,0.7,1.1,1.9,1,2.8c-0.1,0.7-0.3,1.4-0.7,1.8
		c-0.8,0.7-2.4,1-4.2,0.7c-1-0.1-2.2-0.6-3.3-1.5c-0.6-0.6-0.6-1.1-1.3-1.7c-0.6-0.4-0.1-1.4,0-1.8c0.3-0.8,0.6-1.9,0-3.1
		c-0.8-1.4-1.7-1.7-2.4-1.8c-0.4-0.1-0.6-0.1-0.8-0.4c-0.3-0.3-0.3-0.8-0.1-1.5c0.1-1,0.3-2.2-0.6-3.2c-1.3-1.4-2.4-1.3-3.3-1.3
		c-0.6,0-1.1,0-1.8-0.3c-0.3-0.1-0.3-0.3-0.4-0.8c-0.3-0.8-0.6-2.2-2.8-3.1c-1.4-0.6-2.4,0-3.1,0.3c-0.4,0.3-0.8,0.4-1.3,0.4
		c-0.3,0-0.3,0-0.7-0.6c-0.6-0.7-1.3-1.7-3.3-1.4c-1.1,0.1-1.9,1.1-2.4,1.8c-0.1,0.1-0.3,0.4-0.4,0.4s-0.1,0-0.3-0.1
		c-0.8-0.6-2.2-1.4-3.9-0.4c-1,0.6-1.9,1.9-1.9,1.9c-0.3,0.6-0.6,0.8-0.8,1l-0.6-1c-2.2,1.1-6.5,11.1-6.5,13.2
		c0,1.3,0.7,1.8,1.1,2.1c0.4,0.3,0.6,0.4,0.6,1c0,0.3-0.4,0.7-0.7,1.1c-0.4,0.6-1.9,2.6-0.1,4.4l1.1,0.3c0.4,1.7,1.7,2.2,3.5,2.2
		c2.9,0,5.7-1.9,7.5-3.3l0.3-0.1c1.1-0.8,2.4-1.5,2.8-3.3c0.4-0.3,1.4-0.7,3.1-0.7C77.5,282.1,78.7,282.4,80.2,282.8"/>
	<path class="st0" d="M90.4,287.9c-0.3-0.1-0.6-0.3-0.7-0.3c-0.6-0.3-1.9-1-3.6-1.8c-2.2-1.1-5-2.6-5.8-2.9c-4-1.3-6.1-0.4-6.7,0.1
		c-0.3,1.8-1.5,2.5-2.8,3.3l-0.3,0.1c-1.8,1.3-4.6,3.3-7.5,3.3c-1.8,0-3.1-0.6-3.5-2.2l-1.1-0.4c-1.8-1.8-0.3-3.9,0.1-4.4
		c0.3-0.4,0.7-0.8,0.7-1.1c0-0.7-0.1-0.7-0.6-1c-0.4-0.3-1.1-0.8-1.1-2.1c0-2.1,4.3-12.1,6.5-13.2l0.6,1c0.4-0.1,0.6-0.4,0.8-1
		c0,0,0.8-1.5,1.9-1.9c1.7-0.8,3.1,0,3.9,0.4c0.1,0.1,0.1,0.3,0.3,0.1c0.1-0.1,0.3-0.3,0.4-0.4c0.6-0.7,1.3-1.7,2.4-1.8
		c2.1-0.1,2.9,0.8,3.3,1.4c0.4,0.4,0.4,0.6,0.7,0.6c0.6,0,0.8-0.3,1.3-0.4c0.7-0.4,1.5-0.8,3.1-0.3c2.4,0.8,2.6,2.1,2.8,3.1
		c0.1,0.6,0.1,0.7,0.4,0.8c0.7,0.3,1.1,0.3,1.8,0.3c1,0,2.1-0.1,3.3,1.3c1,1,0.7,2.2,0.6,3.2c-0.1,0.8-0.1,1.3,0.1,1.5
		s0.6,0.3,0.8,0.4c0.7,0.1,1.5,0.4,2.4,1.8c0.6,1.1,0.3,2.2,0,3.1c-0.1,0.6-0.6,1.5,0,1.8c0.8,0.6,0.7,1.3,1.3,1.7
		c1.1,1,2.5,1.4,3.3,1.5c1.8,0.3,3.3,0,4.2-0.7c0.4-0.4,0.6-1.1,0.7-1.8c0.1-0.7,0.1-2.1-1-2.8c-1-0.6-3.1,0.1-3.9,1.1l-0.8,1.1
		l-0.6-1.3c-1-2.4-1-4.3-0.1-5.8c1-1.7,2.8-2.2,3.9-2.4c0-3.2,1-5.3,2.8-6.4c3.1-1.9,6.3-0.7,6.3-0.7s-3.5,3.9-0.6,13.3
		c1,3.3,0.3,6.3-1.3,8.5c-2.5,3.6-7.1,4.3-7.2,4.3c-1.1,0.1-2.1,0.3-3.1,0.3C94.8,290.3,91.8,288.6,90.4,287.9 M63.4,288.3
		c2.5-0.4,4.6-1.9,6.3-3.2L70,285c0.7-0.6,1.5-1,1.9-1.7c0.1-0.3,0.1-0.8,0-0.8c-0.3-0.1-0.6-0.3-1.1-0.3c-0.3,0-0.8-0.3-0.8-0.8
		c-0.1-0.6,0.6-1,1-1.3c1.7-0.7,2.8-1.4,3.1-1.7l0,0l0,0v-0.1c0,0,0,0,0,0.1c-0.7-0.7-1.3-1.4-1.5-1.9c-0.3-0.3-0.4-0.6-0.6-0.8
		c-0.7-0.7-1.4-1.1-2.5-1.1c-0.7,0-1.5,1.1-2.4,1.4c-1.1,0.4-1.4-0.7-1.1-1.4c0.3-0.7,1-0.7,1-1.5c0-1.4-0.7-2.9-1.5-4.3
		c-0.3-0.8-1.1-0.8-1.1-0.8c-1.5,0.7-5,8.5-5,10.4c0,0.6,0.1,0.6,0.4,0.8c0.4,0.3,1.1,0.8,1.1,2.2c0,0.8-0.6,1.5-1.1,2.1
		c-0.3,0.3-0.7,0.7-0.7,1c0,0.8,0,1.4,1.9,1.4c1.1,0,2.1-0.3,2.8-0.6c1.1-0.6,2.4-1.7,2.8-2.5c0.6-0.7,1.5-0.1,1.4,0.6
		c-0.6,1.4-2.5,2.2-3.6,3.1c-1.4,1-3.2,0.7-3.2,0.7C60.8,287.6,62,288.6,63.4,288.3"/>
	<path class="st2" d="M93.6,279c-1.8-2.2-3.5-4.6-4.2-5.6c-0.3-0.3-0.3-0.4-0.4-0.6l-0.1-0.3c-1.1-1.4-4.3-5.6-12.5-6.1
		c-0.8,0-7.2,0.1-9.4,2.2c-0.1-0.1-0.1-0.3-0.3-0.6l-0.4-1.1c0.4-0.4,0.6-0.8,0.8-1.1c0.3-0.6,0.6-1.1,1.3-1.4
		c1-0.4,1.5-0.1,2.4,0.4c0.3,0.1,0.6,0.3,0.7,0.4c0.8,0.3,1.4-0.4,1.9-1.1c0.4-0.6,0.8-1.1,1.4-1.1c1.3-0.1,1.7,0.3,2.1,0.8
		c0.4,0.4,1,1.1,2.1,1.1c0.8,0,1.4-0.4,1.8-0.6c0.6-0.3,1-0.6,1.8-0.3c1.5,0.6,1.7,1.1,1.8,1.9c0.1,0.6,0.3,1.4,1.3,1.8
		c1,0.6,1.9,0.6,2.6,0.4c0.8,0,1.4-0.1,2.1,0.7c0.4,0.4,0.4,1.1,0.3,1.9c-0.1,0.8-0.3,1.9,0.6,2.9c0.6,0.6,1.1,0.7,1.5,0.8
		c0.6,0.1,1,0.3,1.4,1.1c0.3,0.6,0.1,1.1-0.1,1.8C93.7,278.2,93.6,278.6,93.6,279L93.6,279z"/>
	<path class="st2" d="M73,275c0.4-0.4,1-0.7,1.7-1c0.3-0.1,0.7,0,1.1,0.3c0.6,0.4,1,1,1.1,1.7l0.3,1.3l1-0.7
		c0.3-0.3,1.4-0.8,2.1-0.6c0.6,0.1,1,0.8,1.3,1.8l0.3,1.1l1-0.7c0.6-0.4,1.1-0.7,1.4-0.6c0.4,0.1,0.7,0.8,1,1.4
		c0.1,0.3,0.3,0.6,0.4,0.7c0.4,0.8,1.3,0.8,1.8,0.8c0.6,0,0.8,0,1,1c0.1,0.6,1.8,0.7,1.5-0.3c-0.6-2.1-1.8-2.2-2.5-2.2
		c-0.4,0-0.4,0-0.6-0.1c-0.1-0.1-0.1-0.4-0.3-0.6c-0.4-0.8-1-1.9-2.1-2.2c-0.6-0.1-1.1,0-1.8,0.3c-0.4-1-1.1-1.7-1.8-1.9
		c-1-0.3-1.9,0-2.6,0.3c-0.3-0.7-0.8-1.4-1.5-1.8c-0.8-0.4-1.7-0.7-2.4-0.4c-1,0.3-1.7,0.7-2.2,1.3c-0.6-0.6-3.6-0.6-3.6-0.6
		c0-1.1-0.3-2.1-0.7-3.1c0.1-1.1,6.1-2.2,8.8-2.1c7.5,0.4,10.3,4,11.4,5.4l0.1,0.3c0,0,0.1,0.3,0.3,0.4c0.8,1.3,2.8,4,5,6.4
		c0.6,0.7,1.8,1.9,2.4,2.4c1.4,1.1,2.8,1.7,4.2,1.8c2.4,0.4,4.3,0,5.6-1.1c0.8-0.7,1-1.8,1.1-2.9c0.1-1.5,0-4-2.5-4.3
		c-1.5-0.1-3.1,0.3-4,1.3c-0.4-1.4-0.3-2.8,0.1-3.8c0.8-1.5,2.8-1.8,3.3-1.8l0.7-0.1v-0.7c0-2.6,0.6-4.6,1.8-5.6
		c1-0.7,2.2-1.3,3.3-1.3c-0.6,2.1-1.8,5.8,0.3,12.6c0.8,2.9,0.3,5.4-1,7.2c-2.1,3.1-6.3,3.8-6.3,3.8h0.1h-0.1h-0.1
		c-5.4,1-9.2-1-11-1.9c-0.3-0.1-0.6-0.3-0.8-0.4c-0.6-0.3-1.9-1-3.5-1.8c-3.1-1.5-5.1-2.8-6.1-3.1c-4.3-1.4-6.7-0.6-7.8,0.1
		l-0.6-0.1c2.4-1,2.9-1.7,3.1-2.6c0.1-0.4,0-1-0.4-1.3c-0.6-0.6-1.1-1.3-1.5-1.8C73.4,275.4,73.1,275.1,73,275"/>
	<path class="st2" d="M61.2,287.2c0,0,1.8,0.3,3.2-0.7c1.1-0.8,3.1-1.7,3.6-3.1c0.1-0.7-0.8-1.3-1.4-0.6c-0.4,0.8-1.7,1.9-2.8,2.5
		c-0.7,0.3-1.7,0.6-2.8,0.6c-1.9,0-1.9-0.6-1.9-1.4c0-0.3,0.4-0.6,0.7-1c0.6-0.6,1.1-1.3,1.1-2.1c0-1.4-0.7-1.9-1.1-2.2
		s-0.4-0.3-0.4-0.8c0-1.9,3.5-9.7,5-10.4c0,0,0.8,0.1,1.1,0.8c0.7,1.4,1.5,2.8,1.5,4.3c0,0.8-0.7,0.8-1,1.5c-0.3,0.6,0,1.7,1.1,1.4
		c0.8-0.3,1.7-1.4,2.4-1.4c1.1,0,1.8,0.3,2.5,1.1c0.1,0.1,0.4,0.4,0.6,0.8c0.4,0.6,1,1.3,1.5,1.9c-0.3,0.3-1.4,1.1-3.1,1.7
		c-0.4,0.3-1.1,0.6-1,1.3c0,0.4,0.6,0.7,0.8,0.8c0.4,0,0.8,0.1,1.1,0.3c0.1,0,0.1,0.7,0,0.8c-0.4,0.7-1.1,1.3-1.9,1.7l-0.3,0.1
		c-1.7,1.3-3.8,2.8-6.3,3.2c-0.1,0-0.3,0-0.4,0C61.9,288.3,60.9,287.6,61.2,287.2 M74,278.5L74,278.5C74,278.5,74,278.3,74,278.5
		L74,278.5L74,278.5"/>
	<path class="st4" d="M63.6,281.2c-0.1-0.1-0.1-0.8,0-1.1c0.1-0.7,0.6-1.3,1-1.5c0,0,1.7-1.1,1.9-1c0.1,0-0.4,1.1-0.4,1.3
		c0.1,1-0.3,1.5-0.3,1.5s-0.4,1-1,1.3c-0.1,0-0.3,0.1-0.4,0.1C64,281.8,63.7,281.7,63.6,281.2 M66.3,277.8L66.3,277.8L66.3,277.8
		L66.3,277.8 M66.3,277.6L66.3,277.6 M66.3,277.6L66.3,277.6"/>
	<path class="st0" d="M20.9,254v63.4c0,51.7,56.3,78,63.4,78.1c7.2-0.3,63.5-26.4,63.5-78.1V254H20.9z M44,344.5
		c0-6.4,5.4-11.5,12.2-11.5c6.7,0,12.2,5.1,12.2,11.5S63,356,56.2,356S44,350.9,44,344.5z M50.6,372l33.8-34.9l33.8,34.9
		c-14.6,13.3-30.4,20.3-33.8,20.4C80.9,392.3,65.1,385.3,50.6,372z M71.8,319.9c0-6.5,5.6-11.8,12.4-11.8c6.8,0,12.5,5.3,12.5,11.8
		s-5.6,11.8-12.5,11.8C77.3,331.5,71.8,326.3,71.8,319.9z M112.2,356c-6.7,0-12.2-5.1-12.2-11.5s5.4-11.5,12.2-11.5
		c6.8,0,12.2,5.1,12.2,11.5S118.9,356,112.2,356z M144.4,317.5c0,11.1-2.8,21-7.2,29.7l-52.8-50.3l-52.9,50.3
		c-4.4-8.8-7.2-18.6-7.2-29.7v-20.6h120.2V317.5z M144.4,294H24.2v-36.7h120.2V294z"/>
	<g>
		<path class="st2" d="M41.2,264.6c1.3,0,2.1-1.1,3.9-1.1c2.4,0,3.2,1.4,5.6,1.9h3.2c0,0,0,1.3,0,2.1s1.7,0.7,1.7,2.5
			c0,1.9-1.5,1.8-1.5,2.5v5c0,0.7,1.7,0.7,1.7,2.4c0,1.4-1.7,1.5-1.7,2.5v2.8H28.8v-2.8c0-1-1.7-1.1-1.7-2.5c0-1.7,1.7-1.8,1.7-2.4
			v-5c0-0.8-1.5-0.7-1.5-2.5c0-1.8,1.7-1.7,1.7-2.5s0-1.7,0-2.1l0,0h3.2c2.4-0.6,3.2-1.9,5.7-1.9C39.2,263.5,39.9,264.6,41.2,264.6
			L41.2,264.6z"/>
		<path class="st0" d="M40.4,263.3H42c1.4-0.8,2.8-1.1,4-1s2.8,1.5,4.4,1.8c0.4,0,1.5,0,1.5,0v17.4h-9c0,1.1-1.4,1.3-1.7,1.3
			c-0.3,0-1.7-0.1-1.7-1.3h-9v-17.4c0,0,1.1,0,1.5,0c1.7-0.3,3.2-1.7,4.4-1.8C37.7,262.2,39,262.5,40.4,263.3L40.4,263.3z"/>
		<path class="st2" d="M32,280v-14.6c1.7-0.3,3.2-1.7,4.4-1.8c1.3-0.1,2.6,0.1,4,1v14c-1.1,0-2.8,0.8-3.6,1.3
			C35.9,280.1,32,280,32,280L32,280z"/>
		<path class="st2" d="M50.4,280c0,0-3.9,0.1-4.7-0.3c-0.8-0.4-2.6-1.3-3.6-1.3v-14c1.4-0.8,2.8-1.1,4-1s2.8,1.5,4.4,1.8V280
			L50.4,280L50.4,280z"/>
	</g>
	<g>
		<path class="st2" d="M126.9,264.6c1.3,0,2.1-1.1,3.9-1.1c2.4,0,3.2,1.4,5.7,1.9h3.2c0,0,0,1.3,0,2.1s1.7,0.7,1.7,2.5
			c0,1.9-1.5,1.8-1.5,2.5v5c0,0.7,1.7,0.7,1.7,2.4c0,1.4-1.7,1.5-1.7,2.5v2.8h-25.2v-2.8c0-1-1.7-1.1-1.7-2.5c0-1.7,1.7-1.8,1.7-2.4
			v-5c0-0.8-1.5-0.7-1.5-2.5c0-1.8,1.7-1.7,1.7-2.5s0-1.7,0-2.1l0,0h3.2c2.4-0.6,3.2-1.9,5.6-1.9C125,263.5,125.8,264.6,126.9,264.6
			L126.9,264.6z"/>
		<path class="st0" d="M126.2,263.3h1.7c1.4-0.8,2.8-1.1,4-1s2.8,1.5,4.4,1.8c0.4,0,1.5,0,1.5,0v17.4h-9c0,1.1-1.4,1.3-1.7,1.3
			s-1.7-0.1-1.7-1.3h-9v-17.4c0,0,1.1,0,1.5,0c1.7-0.3,3.2-1.7,4.4-1.8C123.4,262.2,124.8,262.5,126.2,263.3L126.2,263.3z"/>
		<path class="st2" d="M117.8,280v-14.6c1.7-0.3,3.2-1.7,4.4-1.8c1.3-0.1,2.6,0.1,4,1v14c-1.1,0-2.8,0.8-3.6,1.3
			C121.6,280.1,117.8,280,117.8,280L117.8,280z"/>
		<path class="st2" d="M136.1,280c0,0-3.9,0.1-4.7-0.3c-0.8-0.4-2.6-1.3-3.6-1.3v-14c1.4-0.8,2.8-1.1,4-1s2.8,1.5,4.4,1.8L136.1,280
			L136.1,280z"/>
	</g>
</g>
</svg>
